<?xml version="1.0" standalone="no"?>
<!DOCTYPE svg PUBLIC "-//W3C//DTD SVG 20010904//EN"
 "http://www.w3.org/TR/2001/REC-SVG-20010904/DTD/svg10.dtd">
<svg version="1.0" xmlns="http://www.w3.org/2000/svg"
 width="324.000000pt" height="324.000000pt" viewBox="0 0 324.000000 324.000000"
 preserveAspectRatio="xMidYMid meet">
<metadata>
Created by potrace 1.14, written by Peter Selinger 2001-2017
</metadata>
<g transform="translate(0.000000,324.000000) scale(0.100000,-0.100000)"
fill="#000000" stroke="none">
<path d="M1688 3225 c-114 -31 -230 -110 -302 -206 -61 -81 -81 -120 -106
-210 -17 -63 -19 -92 -14 -204 15 -329 5 -395 -70 -469 -158 -156 -399 11
-312 217 22 54 2 47 -66 -23 -163 -168 -362 -586 -419 -882 -25 -133 -32 -301
-16 -418 20 -149 86 -304 167 -393 45 -50 47 -55 52 -122 9 -130 73 -222 208
-301 160 -94 451 -178 700 -201 149 -15 422 -8 545 13 77 13 246 59 308 85
237 96 385 277 379 464 0 22 3 44 8 50 27 34 91 236 107 342 10 68 11 356 1
418 -17 105 -59 277 -89 362 -54 154 -130 300 -150 288 -5 -4 -7 -10 -5 -14 9
-14 -34 -71 -62 -83 -38 -15 -99 -12 -128 6 -53 35 -65 101 -51 276 14 173
-26 281 -150 402 -43 42 -94 90 -113 108 l-35 31 -5 -43 c-16 -119 -98 -151
-225 -89 -155 76 -223 244 -173 426 18 66 32 96 73 158 20 31 15 32 -57 12z"/>
<path d="M874 2783 c-16 -26 -2 -56 29 -60 34 -5 58 36 37 62 -17 20 -53 19
-66 -2z"/>
<path d="M2520 2405 c-13 -33 -3 -55 24 -55 42 0 59 36 30 64 -23 23 -43 20
-54 -9z"/>
<path d="M2576 2295 c-18 -19 -10 -45 14 -45 29 0 43 25 25 44 -20 20 -20 20
-39 1z"/>
</g>
</svg>
